<svg xmlns="http://www.w3.org/2000/svg" viewBox="0 0 76.6 76.6"><defs><style>.cls-1{fill:#bb233b;}.cls-2{fill:none;stroke:#bb233b;stroke-miterlimit:10;}</style></defs><title>design_1</title><g id="Layer_2" data-name="Layer 2"><g id="Layer_1-2" data-name="Layer 1"><path class="cls-1" d="M17.14,23.22H42l-.55.81H17l-.06.94v.14c0,.12,0,.24,0,.35v5.1q0,8.3,0,16.59a1.46,1.46,0,0,0,.39,1.07,1.47,1.47,0,0,0,1.07.39H58.83a1.33,1.33,0,0,0,1.44-1.44q0-8.87,0-17.74V24H54l.74-.79h5.4a.84.84,0,0,1,.88.62l0,.1v27.6c-.2.46-.52.7-1.41.7l-15.23,0H17.12a.88.88,0,0,1-.74-.25,2.35,2.35,0,0,1-.25-.42l0-.09V23.94l0-.06a.93.93,0,0,1,1-.66h0m0-1a1.91,1.91,0,0,0-1.95,1.28.83.83,0,0,1-.1.15V51.73a5.43,5.43,0,0,0,.55.92,1.88,1.88,0,0,0,1.48.58H44.44l15.23,0h0a2.21,2.21,0,0,0,2.4-1.51v-28L62,23.46a1.83,1.83,0,0,0-1.8-1.23H54.58a.64.64,0,0,0-.41.18c-.5.52-1,1.06-1.48,1.59l-.91,1h7.49v.41q0,10.87,0,21.73c0,.34-.1.44-.44.44H18.37c-.36,0-.46-.1-.45-.46q0-10.85,0-21.69c0-.13,0-.26,0-.43H41.51a.81.81,0,0,0,.75-.41c.32-.49.66-1,1-1.45l.67-.95H17.14Z"/><path class="cls-1" d="M53.68,16.62a1.43,1.43,0,0,1,.49,1c0,.06,0,.12,0,.2V18A3.67,3.67,0,0,1,53,20.42q-2.21,2.39-4.41,4.8l-2.16,2.35-1.82,2Q43,31.35,41.29,33.17c-1.07,1.17-2.12,2.36-3.18,3.54l-.91,1-.35-.28-.34-.28v0c.73-1,1.47-2,2.2-3s1.64-2.32,2.46-3.49l1.58-2.24,2.08-2.94,1.81-2.56,1.19-1.7c.63-.91,1.28-1.83,1.94-2.75l.07.06.29.25.77.67.66-.79.3-.37a6.61,6.61,0,0,1,.52-.61,7.23,7.23,0,0,1,.64-.53l.35-.27.31-.25m-.95-1.31a3.85,3.85,0,0,0-3.19,1.75c-1.27,1.73-2.48,3.51-3.72,5.26l-3.89,5.51c-1.34,1.91-2.68,3.83-4,5.73-.81,1.14-1.64,2.26-2.47,3.39a.44.44,0,0,0,.08.71l1.34,1.08a.69.69,0,0,0,.41.19.65.65,0,0,0,.46-.28c1.43-1.6,2.85-3.21,4.3-4.8,1.71-1.88,3.43-3.73,5.15-5.6,2.19-2.38,4.37-4.77,6.57-7.15A4.66,4.66,0,0,0,55.19,18c0-.21,0-.32,0-.44a2.35,2.35,0,0,0-2.27-2.22ZM50.8,18l-.75-.65A2.76,2.76,0,0,1,52.29,16a1.41,1.41,0,0,1,.46.07c-.36.29-.74.55-1.06.87s-.58.68-.89,1.05Z"/><path class="cls-1" d="M33.42,38.19l0,1A2.77,2.77,0,0,1,36,40.69.41.41,0,0,1,36,41a1,1,0,0,1-.59.53A9.2,9.2,0,0,1,32,42.4h-.69a3.71,3.71,0,0,0,.3-.51c.2-.41.35-.83.5-1.23s.21-.55.32-.82a1,1,0,0,1,1-.67v-1m0,0a2,2,0,0,0-1.9,1.27c-.29.66-.5,1.36-.81,2a3.2,3.2,0,0,1-.74,1,2.79,2.79,0,0,1-1.8.51L27.1,43v.15a4.57,4.57,0,0,0,.82.18c1.09,0,2.17.09,3.26.09H32a10.17,10.17,0,0,0,3.81-.91,1.61,1.61,0,0,0,1-2.29,3.76,3.76,0,0,0-3.37-2Z"/><path class="cls-1" d="M34.58,56.12h8v0c0,.19.06.39.08.58a3.82,3.82,0,0,0,.8,2.07h-3.9v0H33.73a3.49,3.49,0,0,0,.68-1.58c.06-.33.11-.68.17-1.07m-.51-1c-.3,0-.38.12-.41.38-.06.51-.14,1-.22,1.52a2.35,2.35,0,0,1-1,1.59,5.84,5.84,0,0,0-.72.6,2,2,0,0,0-.26.42,1.74,1.74,0,0,0,.47.14h6.64v0h5.25c.5,0,1,0,1.5,0a1.19,1.19,0,0,0,.35-.14,1.18,1.18,0,0,0-.16-.32,3.09,3.09,0,0,0-.51-.44,2.87,2.87,0,0,1-1.35-2.22c0-.39-.11-.77-.15-1.15s-.13-.37-.42-.37h-9Z"/><circle class="cls-2" cx="38.3" cy="38.3" r="37.8"/></g></g></svg>