<svg xmlns="http://www.w3.org/2000/svg" viewBox="0 0 76.6 76.6"><defs><style>.cls-1{fill:none;stroke:#bb233b;stroke-miterlimit:10;}</style></defs><title>ceo</title><g id="Layer_2" data-name="Layer 2"><g id="Layer_1-2" data-name="Layer 1"><circle class="cls-1" cx="38.3" cy="38.3" r="37.8"/><path class="cls-1" d="M50.89,45.15c.14,1.13.27,2.15.4,3.16.19,1.47.41,2.94.57,4.42a.84.84,0,0,1-.34.6c-3.19,2.4-6.37,4.81-9.59,7.16a3.64,3.64,0,0,0-1.64,4.19s0,.07,0,.16H36.73a2.08,2.08,0,0,1,0-.34,3.42,3.42,0,0,0-1.37-3.78q-5-3.7-9.91-7.39a.71.71,0,0,1-.32-.79c.33-2.31.63-4.62.93-6.93a.56.56,0,0,0-.08-.38c-.08.18-.17.36-.24.55C24.88,48,24,50.3,23.12,52.55a.58.58,0,0,0,.23.83c3.27,2.42,6.52,4.85,9.78,7.28a3.59,3.59,0,0,1,1.52,2.22,3.4,3.4,0,0,1-5.38,3.4Q25.15,63.22,21,60.14L16.88,57a3.39,3.39,0,0,1-1.18-4.16l6.38-16.44c.12-.31.21-.64.34-1a3.53,3.53,0,0,1,2.37-2.23c1.83-.5,3.66-1,5.49-1.48a2.16,2.16,0,0,1,.4,0l5.1,19.52h.12c0-.32.07-.64.08-1,.12-3.29.26-6.58.35-9.87a2.48,2.48,0,0,1,.6-1.65l1.45-1.65c-.58-.63-1.18-1.23-1.72-1.87s-.61-1,0-1.74c1.51-1.91,2.51-2,4.08.15a1,1,0,0,1-.06,1.47c-.59.68-1.23,1.31-1.9,2,.36.43.76.9,1.16,1.36a3.07,3.07,0,0,1,.8,2c.09,3.37.26,6.73.4,10.1a1.12,1.12,0,0,0,.18.63c.06-.2.12-.39.17-.59L46.08,33c.35-1.34.37-1.39,1.7-1,1.6.41,3.19.88,4.75,1.39a3.25,3.25,0,0,1,2,2.08q2.64,6.83,5.3,13.66c.48,1.23,1,2.45,1.43,3.68A3.42,3.42,0,0,1,60,57.1q-6.1,4.56-12.21,9.11a3.38,3.38,0,0,1-5.52-2.39,3.27,3.27,0,0,1,1.45-3.06l8.19-6.11c.6-.45,1.22-.89,1.8-1.36a.63.63,0,0,0,.21-.53C53,50.28,52,47.81,51.08,45.35,51.06,45.3,51,45.27,50.89,45.15Z"/><path class="cls-1" d="M38.45,9.8a7.53,7.53,0,0,1,7.94,7.78,12.32,12.32,0,0,1-4,9.6,5.56,5.56,0,0,1-8-.06,12.35,12.35,0,0,1-3.79-7.85,10.1,10.1,0,0,1,.27-4.08C31.86,11.8,34.67,9.81,38.45,9.8Z"/><path class="cls-1" d="M49,17.34l-.33-2.42a10.74,10.74,0,0,1,4.55.92,12.44,12.44,0,0,1,7.34,9.69,23.26,23.26,0,0,1-.16,6c-.23,3-.51,5.92-.76,8.88a1.84,1.84,0,0,1-.17.68,21.86,21.86,0,0,0-1-2.54,8.67,8.67,0,0,1-.66-5.47,43.92,43.92,0,0,0,.47-5.51,10,10,0,0,0-9.07-10.17Z"/><path class="cls-1" d="M28.32,14.88,28,17.31c-.6.11-1.2.18-1.77.35-4,1.17-6.22,3.93-7.14,7.89a16.73,16.73,0,0,0,.06,5.11c.12,1.65.29,3.3.42,4.95a1.3,1.3,0,0,1-.06.55c-.58,1.53-1.18,3-1.77,4.57,0,0-.06.07-.15.17-.09-1-.18-1.92-.26-2.84-.28-3.33-.64-6.67-.82-10A12.43,12.43,0,0,1,26.7,15C27.21,15,27.74,14.94,28.32,14.88Z"/></g></g></svg>