<svg xmlns="http://www.w3.org/2000/svg" viewBox="0 0 76.6 76.6"><defs><style>.cls-1{fill:none;stroke:#bb233b;stroke-miterlimit:10;}.cls-2{fill:#bb233b;}</style></defs><title>installation</title><g id="Layer_2" data-name="Layer 2"><g id="Layer_1-2" data-name="Layer 1"><circle class="cls-1" cx="38.3" cy="38.3" r="37.8"/><path class="cls-2" d="M27.85,27.25a.76.76,0,0,1,.38.1l.17.1.06,0,.93.53h0l.16.11,1,.54c.72.41,1.44.81,2.16,1.23a5,5,0,0,0,2.62.79c1,0,2,.06,2.95.11l1.36.07h.15a1.56,1.56,0,0,0,.63-.12.88.88,0,0,1,.36-.07,1.79,1.79,0,0,1,.58.12l1.15.4,3.67,1.27a2.74,2.74,0,0,0,.88.15h.22l2.52-.23,2.14-.2a1.43,1.43,0,0,0,.6-.18h1.06a.86.86,0,1,1,0,1.72c-.5,0-1,0-1.41.08h0l-1.57.13L50,34c-.41,0-.81.06-1.21.11-.74.08-1.51.19-2.37.32l-.25,0a1.05,1.05,0,0,1-.38-.07l-2.39-.86-.59-.21a1.92,1.92,0,0,0-.37-.08L41.29,33l-.05,1.15L41,40l-.16,3.38-.25,0-6.78-.76.05-1.08.12-2.44q.13-2.78.26-5.57a1.33,1.33,0,0,0-1.09-1.58l-.84-.47-1.06-.6L29.62,30l-.5-.27-.91-.5,0,0L27.89,29l-.51-.29a.81.81,0,0,1-.34-.93.86.86,0,0,1,.81-.56m5.79,18.34,1.36.15,5.69.63a.75.75,0,0,1,.6.26c.7.8,1.44,1.56,2.15,2.3l.83.86.2.19.07.06.67.6a1.67,1.67,0,0,0,.33.48,13.47,13.47,0,0,1,1,1.13,2,2,0,0,1,.2.83L47,55.41c.22,1.84.43,3.68.63,5.52a1.46,1.46,0,0,1-.35,1.15,1.44,1.44,0,0,1-1.07.47,1.62,1.62,0,0,1-.41-.05,1.55,1.55,0,0,1-1.08-1.41c-.08-.74-.17-1.48-.25-2.21s-.14-1.2-.21-1.8a1.28,1.28,0,0,0-.58-1,2.65,2.65,0,0,0,.24-2c0-.09,0-.19,0-.28a1,1,0,0,0-.33-.66l-.11-.13-.32-.35L39,48.47l-.21-.19,0,0-.53-.46-.61.35,0,0-.56.3,0,.63v.08c0,.1,0,.21,0,.31l.13,1c.08.62.17,1.25.24,1.87,0,.31.06.63.09.94s0,.55.07.81a1.09,1.09,0,0,0,0,.2,1.29,1.29,0,0,0-.44.43q-1,1.55-2,3.1l-.64,1-.53.82c-.38.58-.75,1.16-1.14,1.73a1.44,1.44,0,0,1-1.18.6,1.29,1.29,0,0,1-.66-.17,1.4,1.4,0,0,1-.64-1.86c.26-.49.58-1,.92-1.47l.39-.59,1.68-2.57.85-1.3.07-.12,0,0,.58-1-.44-.16V52.1a1.52,1.52,0,0,0,0-.25l-.23-1.7c-.19-1.43-.39-2.86-.56-4.3,0-.09,0-.18,0-.27M33.48,14.8h-.1a1.82,1.82,0,0,1-.05.22L29.06,26.4c0,.07-.06.13-.1.21l-.25-.14a1.76,1.76,0,0,0-.86-.22,1.85,1.85,0,0,0-1.77,1.26,1.81,1.81,0,0,0,.8,2.1l.8.45L20.76,48.54l12.7,4.77-.07.12-2.52,3.87c-.46.71-1,1.39-1.35,2.13a2.4,2.4,0,0,0,1,3.19,2.29,2.29,0,0,0,1.16.31,2.44,2.44,0,0,0,2-1c.58-.85,1.12-1.71,1.69-2.57.89-1.36,1.79-2.72,2.67-4.08.06-.09.11-.12.17-.12a.41.41,0,0,1,.14,0l4.71,1.77a.29.29,0,0,1,.22.27c.15,1.34.32,2.68.46,4a2.53,2.53,0,0,0,1.82,2.27,2.62,2.62,0,0,0,.66.08,2.43,2.43,0,0,0,2.42-2.73c-.28-2.62-.6-5.23-.9-7.85a2.6,2.6,0,0,0-.4-1.32,14.57,14.57,0,0,0-1.1-1.24.43.43,0,0,1-.11-.52q1.67-4.41,3.32-8.83,1.13-3,2.27-6c0-.09.14-.22.22-.23.52,0,1.05-.09,1.58-.1a1.86,1.86,0,1,0,0-3.72h-.3l2.87-7.65-.26-.11L35.6,15.62l-2.12-.82Zm6.27,15.07h-.1c-1.45-.07-2.9-.19-4.35-.19A4,4,0,0,1,33.19,29c-1-.61-2.09-1.19-3.13-1.79l-.13-.09,4.11-11L54.72,24l-1,2.66c-.54,1.43-1.08,2.86-1.61,4.3a.33.33,0,0,1-.33.25l-4.65.44H47a1.74,1.74,0,0,1-.55-.09l-4.82-1.67a2.76,2.76,0,0,0-.91-.17,1.88,1.88,0,0,0-.76.16.58.58,0,0,1-.23,0ZM33.46,52.15,22.15,47.9l6.49-17.31,2.07,1.14,2,1.1.12,0c.41.13.42.13.4.58q-.13,2.78-.26,5.57-.1,2.11-.2,4.22c0,.08,0,.15,0,.25l9,1,.49-10.35a1.58,1.58,0,0,1,.22,0c1,.35,2,.7,3,1.06a2.05,2.05,0,0,0,.72.13,2.67,2.67,0,0,0,.4,0c.78-.12,1.55-.22,2.33-.31.57-.07,1.13-.1,1.75-.15L45.22,49.3,45,49.1c-1-1-2-2-3-3.13a1.73,1.73,0,0,0-1.25-.6c-2.62-.28-5.24-.58-7.85-.88l-.28,0a12.49,12.49,0,0,0,0,1.49c.25,2,.53,4,.79,6a1.61,1.61,0,0,1,0,.17Zm9.34,3.51-2.49-.93-1.55-.59A.29.29,0,0,1,38.6,54c-.06-.59-.09-1.18-.16-1.77-.11-1-.25-1.9-.37-2.85,0-.1,0-.21,0-.31l.06,0,.18.16,4.11,4.28.42.46s.08.06.08.1c.07.55.28,1.12-.1,1.66Z"/><path class="cls-2" d="M38.87,20.55h0a3.4,3.4,0,0,1,3.28,2.66H35.61a3.37,3.37,0,0,1,2.73-2.61,3.1,3.1,0,0,1,.53,0m0-1a4.1,4.1,0,0,0-.7.06,4.34,4.34,0,0,0-3.61,4.6h9.66V24h-1a4.44,4.44,0,0,0-4.39-4.42Z"/><path class="cls-2" d="M36,25.36h.9l5,.06H42a3.45,3.45,0,0,1-3.15,2.74l-.34,0a3.54,3.54,0,0,1-1.77-.77,3.11,3.11,0,0,1-1.21-2H36m0-1H34.51c0,.27,0,.52,0,.77a4.09,4.09,0,0,0,1.62,3,4.51,4.51,0,0,0,2.27,1l.47,0a4,4,0,0,0,2.47-.91A4,4,0,0,0,43,24.78c0-.34,0-.35-.34-.35l-5.78-.07Z"/></g></g></svg>