<?xml version="1.0" encoding="utf-8"?>
<!-- Generator: Adobe Illustrator 21.1.0, SVG Export Plug-In . SVG Version: 6.00 Build 0)  -->
<svg version="1.1" id="Layer_1" xmlns="http://www.w3.org/2000/svg" xmlns:xlink="http://www.w3.org/1999/xlink" x="0px" y="0px"
	 viewBox="0 0 700.5 257.8" style="enable-background:new 0 0 700.5 257.8;" xml:space="preserve">
<style type="text/css">
	.st0{fill:#BC2139;}
	.st1{enable-background:new    ;}
</style>
<title>Artboard 1 copy</title>
<path class="st0" d="M47,91.1c-7.2-0.4-12.8-1.5-17-3.3c-3.8-1.7-7.4-3.8-10.7-6.4c-3.2-2.6-6-5.6-8.3-9c-2.4-3.4-4.2-7.1-5.5-11
	c-1.2-4.2-1.8-8.5-1.8-12.9C3.5,42.8,4.7,37.2,7,32c2.2-5.1,5.3-9.6,9.3-13.4c4-3.8,8.7-6.8,13.9-8.8c5.9-2.3,12.3-3.4,18.7-3.3
	h19.4c3.3-0.2,6.5,1.2,8.6,3.7c4.1,4.7,4.1,11.8,0,16.5c-2.2,2.4-5.4,3.7-8.6,3.5H47c-0.9,0-1.7,0-2.6-0.1c-1.8,0.1-3.6,0.5-5.2,1.3
	c-3.5,1.3-6.5,3.6-8.6,6.7c-2.2,3.1-3.4,6.9-3.2,10.7c0,2.6,0.5,5.2,1.4,7.6c1,2.2,2.5,4.2,4.2,5.9c3.8,3.4,8.7,5.3,13.9,5.2h5.2
	l8.5-21.5h21.2c7.1,0,10.6,3.6,10.6,10.7s-3.5,10.7-10.6,10.7H74l-8.1,23.4H47z"/>
<path class="st0" d="M165.3,33.6c0,17.5-8.3,26.5-24.9,27H138l10,9.6c5.6,5.8,6.1,11.6,1.3,17.2c-4.8,5.6-10.8,5.6-17.9,0
	l-24.4-24.3c-6.1-4.8-9.2-8.8-9.2-12c0-9.3,4.4-14,13.1-14h29.4c3.1,0,4.7-1.2,4.7-3.5s-1.6-3.5-4.7-3.5h-31.3
	c-7.3,0-11.1-3.9-11.3-11.7s3.5-11.7,11.1-11.7H139C156.5,6.6,165.3,15.6,165.3,33.6"/>
<path class="st0" d="M249.4,75.5c1.3,3.6,1.2,6.7-0.3,9.3c-1.4,2.6-3.7,4.5-6.5,5.5c-2.8,1.1-6,1.2-8.9,0.3c-2.8-1-4.9-3.4-6.2-6.9
	l-1.7-4.1h-29.7l-1.8,4.1c-1.3,3.6-3.4,5.9-6.4,6.9c-2.9,0.9-6,0.8-8.8-0.3c-2.8-1-5.1-2.9-6.5-5.5c-1.5-2.7-1.6-5.8-0.3-9.3
	L185,47.3c1.3-3.6,3.4-5.9,6.2-6.9c2.9-1,6-1,8.9,0.1c2.8,1.1,5.1,3.1,6.5,5.6c1.5,2.6,1.6,5.7,0.3,9.3l-1.4,3.1H217l-15.1-36.3
	c-1.3-3.6-1.2-6.7,0.3-9.3c1.4-2.6,3.7-4.6,6.5-5.7c2.8-1.1,5.9-1.2,8.8-0.1c2.9,1,5,3.3,6.4,6.9L249.4,75.5z"/>
<path class="st0" d="M282.4,79.1c0,8-3.9,12-11.7,12s-11.5-4-11.5-12V51.4c-0.2-9.5,4.2-14.3,13.1-14.3h29.4c3.1,0,4.7-1.2,4.7-3.5
	s-1.5-3.6-4.7-3.6h-31.4c-7.3,0-11.1-3.9-11.3-11.7s3.5-11.7,11.1-11.7h30.3c17.5,0,26.3,9,26.3,27s-8.7,27-26.1,27h-18.3V79.1z"/>
<path class="st0" d="M345.3,91.1c-7.7,0-11.6-3.9-11.6-11.7V18.3c0-7.8,3.9-11.7,11.6-11.7h46.6c3.3-0.2,6.4,1.1,8.6,3.5
	c2.1,2.2,3.2,5.2,3.1,8.2c0.1,3.1-1.1,6.1-3.1,8.3c-2.1,2.3-4.9,3.4-8.6,3.4h-35v7.1h35c3.3-0.2,6.4,1.1,8.6,3.5
	c2.1,2.2,3.2,5.2,3.1,8.2c0,3.1-1.1,6-3.1,8.3c-2.1,2.3-4.9,3.4-8.6,3.4h-35v7.1h35c3.3-0.2,6.4,1.1,8.6,3.5
	c2.1,2.2,3.2,5.2,3.1,8.2c0,3.1-1.1,6-3.1,8.3c-2.1,2.3-5,3.4-8.6,3.4L345.3,91.1z"/>
<path class="st0" d="M464.2,14.1c1.3-3.6,3.4-5.9,6.2-6.9c2.9-1,6-1,8.9,0.1c2.8,1.1,5.1,3.1,6.5,5.7c1.5,2.7,1.6,5.8,0.3,9.3
	l-25.2,61.1c-2.3,5.2-5.8,7.8-10.7,7.8s-8.9-2.6-11.9-7.8l-25.2-61.1c-1.3-3.6-1.2-6.7,0.3-9.3c1.4-2.6,3.7-4.6,6.5-5.7
	c2.8-1.1,5.9-1.2,8.8-0.1c2.9,1,5,3.3,6.4,6.9l14.5,37.3L464.2,14.1z"/>
<path class="st0" d="M518.9,79.4c0,3.8-1.2,6.6-3.5,8.6c-2.2,2-5.1,3-8.1,3c-3.1,0-6-1-8.3-3c-2.3-2-3.4-4.9-3.4-8.6V18.3
	c0-3.8,1.1-6.6,3.4-8.6c2.3-2,5.3-3.1,8.3-3c3,0,5.8,1,8.1,3c2.3,2,3.5,4.9,3.5,8.6V79.4z"/>
<path class="st0" d="M552.6,79.4c0,3.8-1.2,6.6-3.5,8.6c-2.3,2-5.2,3.1-8.2,3c-3,0-5.9-1-8.2-3c-2.3-2-3.4-4.9-3.4-8.6V18.3
	c0-3.8,1.1-6.6,3.4-8.6c2.3-2,5.2-3,8.2-3c4.5-0.2,7.7,1.6,9.5,5.2L571.6,44V18.3c0-3.8,1.1-6.6,3.4-8.6c2.3-2,5.2-3,8.2-3
	c3-0.1,5.9,1,8.2,3c2.4,2,3.5,4.9,3.5,8.6v61.1c0,3.8-1.2,6.6-3.5,8.6c-2.3,2-5.2,3.1-8.2,3c-1.4,0-2.8-0.2-4.1-0.6
	c-1.1-0.3-2.1-0.8-3-1.4c-0.7-0.5-1.3-1.1-1.8-1.7c-0.5-0.6-0.8-1-1.1-1.4l-0.3,0.1l-20.2-30.7V79.4z"/>
<path class="st0" d="M616.9,91.1c-7.7,0-11.6-3.9-11.6-11.7V18.3c0-7.8,3.9-11.7,11.6-11.7h46.7c3.3-0.2,6.4,1.1,8.6,3.5
	c2.1,2.2,3.2,5.2,3.1,8.2c0.1,3.1-1.1,6.1-3.1,8.3c-2.1,2.2-4.9,3.4-8.6,3.4h-35v7.1h35c3.7,0,6.6,1.2,8.6,3.5
	c2.1,2.2,3.2,5.2,3.1,8.2c0.1,3.1-1.1,6-3.1,8.3c-2.1,2.3-4.9,3.4-8.6,3.4h-35v7.1h35c3.7,0,6.6,1.2,8.6,3.5
	c2.1,2.2,3.2,5.2,3.1,8.2c0,3.1-1.1,6-3.1,8.3c-2.1,2.3-4.9,3.4-8.6,3.4L616.9,91.1z"/>
<path class="st0" d="M546.2,135c-9.8,0-10.3,9.3-10.3,14.2c0,8.3,3.3,14.6,10.2,14.6c4,0,10.3-2.7,10.3-12.7
	C556.4,144.9,555.4,135,546.2,135z"/>
<path class="st0" d="M615.7,157.4c0,4.1,2.1,6.6,6.9,6.6c5.9,0,11.7-3.8,11.7-8.9v-6.2c-1,0.8-2.6,1.4-10.5,2.4
	C620.7,151.7,615.7,152.6,615.7,157.4z"/>
<path class="st0" d="M495,135c-5.9,0-10.5,5.4-10.5,11.3h21C505.2,140.4,502.8,135,495,135z"/>
<path class="st0" d="M653.9,110.6H21.6c-10.8,0-19.6,8.8-19.6,19.6v32.1c0,10.8,8.8,19.6,19.6,19.6c0,0,0,0,0,0h632.3
	c10.8,0,19.6-8.8,19.6-19.6c0,0,0,0,0,0v-32.1C673.5,119.3,664.8,110.6,653.9,110.6z M458.5,168.2h-6.4v-24.4c0-5.2-1.6-8.8-7-8.8
	s-8.9,5.1-8.9,10.1v23.1h-6.4V142c0-3.2-1.2-7-5.9-7c-3.6,0-10,2.3-10,12.6v20.6h-6.4v-37.8h6v5.4h0.1c2.4-4,6.8-6.4,11.4-6.4
	c6.8,0,9,4.1,10,6.1c3.2-3.5,5.7-6.1,11.6-6.1c4,0,11.7,2.1,11.7,12.7L458.5,168.2z M495.5,163.8c6,0,9.5-4.6,9.8-7.4h6.4
	c-0.8,4.2-3.2,7.9-6.7,10.3c-1.7,1.2-4.2,2.6-10.3,2.6c-10.6,0-16.9-8-16.9-18.9c0-11.7,5.6-21,18.1-21c10.9,0,16.3,8.7,16.3,22
	h-27.5C484.6,159.2,488.2,163.8,495.5,163.8L495.5,163.8z M562.8,168.2h-6V163h-0.2c-2,4.1-6.2,6.5-10.8,6.3
	c-12.9,0-16.6-12.1-16.6-21.1c0-10.6,5.7-18.9,15.8-18.9c6.8,0,9.8,4.3,11.3,6.4l0.2-0.5v-19h6.4L562.8,168.2z M589.9,168.2h-6.3
	v-37.8h6.3L589.9,168.2z M589.9,123.5h-6.3v-7.2h6.3L589.9,123.5z M644.8,168.2c-1.1,0.4-2.3,0.7-3.4,0.7c-5.6,0-6.5-2.9-6.7-5.8
	c-3.4,4-8.4,6.3-13.7,6.2c-6.9,0-11.9-4.4-11.9-10.9c0-3.2,0.9-10.5,11.5-11.9l10.5-1.3c1.5-0.1,3.3-0.7,3.3-4.5
	c0-4-2.9-6.1-8.9-6.1c-7.2,0-8.2,4.4-8.7,7.3H611c0.3-9,6.3-12.6,15.6-12.6c3,0,14,0.9,14,10.5v21.8c0,1.6,0.8,2.2,2.1,2.2
	c0.7,0,1.4-0.1,2.1-0.3L644.8,168.2z"/>
<path class="st0" d="M653.9,183.8H21.6C9.7,183.8,0,174.1,0,162.2v-32.1c0-11.9,9.7-21.6,21.6-21.6h632.3c11.9,0,21.6,9.6,21.7,21.6
	c0,0,0,0,0,0v32.1C675.6,174.2,665.9,183.8,653.9,183.8z M21.6,112.6c-9.7,0-17.6,7.9-17.6,17.6v32.1c0,9.7,7.9,17.6,17.6,17.6
	h632.3c9.7,0,17.6-7.9,17.6-17.6v-32.1c0-9.7-7.9-17.6-17.6-17.6H21.6z"/>
<g class="st1">
	<path class="st0" d="M14.3,206.6c0,2.6-2,4.7-5,4.7c-2.9,0-4.9-2.1-4.8-4.7c-0.1-2.7,1.9-4.7,4.9-4.7S14.2,203.9,14.3,206.6z
		 M4.6,245v-30H14v30H4.6z"/>
	<path class="st0" d="M21.4,224.5c0-3.7-0.1-6.9-0.2-9.6h8.1l0.4,4.1h0.2c1.2-1.9,4.3-4.8,9.3-4.8c6.1,0,10.7,4,10.7,12.9V245h-9.3
		v-16.6c0-3.9-1.4-6.5-4.7-6.5c-2.6,0-4.1,1.8-4.7,3.5c-0.2,0.6-0.4,1.5-0.4,2.3V245h-9.3V224.5z"/>
	<path class="st0" d="M71.6,225.7v6.2H55.5v-6.2H71.6z"/>
	<path class="st0" d="M77.1,236.8c1.7,1,5.3,2.3,8,2.3c2.8,0,4-1,4-2.5c0-1.5-0.9-2.3-4.4-3.4c-6.2-2.1-8.6-5.5-8.5-9
		c0-5.6,4.8-9.8,12.2-9.8c3.5,0,6.6,0.8,8.5,1.7l-1.7,6.4c-1.3-0.7-3.9-1.7-6.5-1.7c-2.3,0-3.6,0.9-3.6,2.5c0,1.4,1.2,2.1,4.8,3.4
		c5.7,2,8.1,4.8,8.2,9.3c0,5.6-4.4,9.7-13,9.7c-3.9,0-7.4-0.9-9.7-2.1L77.1,236.8z"/>
</g>
<g class="st1">
	<path class="st0" d="M107.3,206.4v8.6h6.7v6.9h-6.7v10.9c0,3.6,0.9,5.3,3.7,5.3c1.2,0,2.1-0.1,2.8-0.2l0.1,7.1
		c-1.2,0.5-3.4,0.8-6.1,0.8c-3,0-5.5-1-7-2.6c-1.7-1.8-2.6-4.7-2.6-8.9v-12.3h-4v-6.9h4v-6.5L107.3,206.4z"/>
</g>
<g class="st1">
	<path class="st0" d="M146.7,229.6c0,11-7.8,16-15.8,16c-8.8,0-15.5-5.8-15.5-15.5c0-9.7,6.4-15.9,16-15.9
		C140.5,214.3,146.7,220.6,146.7,229.6z M124.9,229.9c0,5.2,2.1,9,6.1,9c3.6,0,6-3.6,6-9c0-4.5-1.7-9-6-9
		C126.6,220.9,124.9,225.5,124.9,229.9z"/>
</g>
<g class="st1">
	<path class="st0" d="M150.9,224.8c0-4.4-0.1-7.3-0.2-9.9h8l0.3,5.5h0.2c1.5-4.4,5.2-6.2,8.1-6.2c0.9,0,1.3,0,2,0.1v8.8
		c-0.7-0.1-1.5-0.2-2.5-0.2c-3.4,0-5.8,1.8-6.4,4.7c-0.1,0.6-0.2,1.4-0.2,2.1V245h-9.3V224.8z"/>
</g>
<g class="st1">
	<path class="st0" d="M177.7,232.9c0.3,3.9,4.1,5.7,8.5,5.7c3.2,0,5.8-0.4,8.3-1.2l1.2,6.3c-3.1,1.2-6.8,1.8-10.9,1.8
		c-10.2,0-16-5.9-16-15.3c0-7.6,4.7-16,15.2-16c9.7,0,13.4,7.5,13.4,15c0,1.6-0.2,3-0.3,3.7H177.7z M188.7,226.5
		c0-2.3-1-6.1-5.3-6.1c-3.9,0-5.5,3.6-5.8,6.1H188.7z"/>
	<path class="st0" d="M215.1,245c0.1-2,0.2-5.6,0.2-9v-34.6h9.3v17.1h0.1c1.8-2.6,4.9-4.2,9.1-4.2c7.2,0,12.5,6,12.4,15.2
		c0,10.8-6.9,16.2-13.7,16.2c-3.5,0-6.9-1.3-9-4.8h-0.1L223,245H215.1z M224.6,232.2c0,0.6,0.1,1.2,0.2,1.7c0.6,2.5,2.8,4.4,5.5,4.4
		c4,0,6.4-3.1,6.4-8.5c0-4.7-2.1-8.3-6.4-8.3c-2.5,0-4.8,1.9-5.5,4.6c-0.1,0.6-0.2,1.1-0.2,1.7V232.2z"/>
</g>
<g class="st1">
	<path class="st0" d="M249.7,224.8c0-4.4-0.1-7.3-0.2-9.9h8l0.3,5.5h0.2c1.5-4.4,5.2-6.2,8.1-6.2c0.9,0,1.3,0,2,0.1v8.8
		c-0.7-0.1-1.5-0.2-2.5-0.2c-3.4,0-5.8,1.8-6.4,4.7c-0.1,0.6-0.2,1.4-0.2,2.1V245h-9.3V224.8z"/>
</g>
<g class="st1">
	<path class="st0" d="M286.7,245l-0.6-3H286c-2,2.4-5,3.7-8.6,3.7c-6.1,0-9.7-4.4-9.7-9.2c0-7.8,7-11.5,17.6-11.5v-0.4
		c0-1.6-0.9-3.9-5.5-3.9c-3.1,0-6.3,1-8.3,2.3l-1.7-6c2.1-1.2,6.2-2.6,11.7-2.6c10,0,13.2,5.9,13.2,12.9v10.4c0,2.9,0.1,5.6,0.4,7.3
		H286.7z M285.6,230.8c-4.9-0.1-8.7,1.1-8.7,4.7c0,2.4,1.6,3.6,3.7,3.6c2.3,0,4.2-1.5,4.8-3.4c0.1-0.5,0.2-1,0.2-1.6V230.8z"/>
	<path class="st0" d="M302.1,224.5c0-3.7-0.1-6.9-0.2-9.6h8.1l0.4,4.1h0.2c1.2-1.9,4.3-4.8,9.3-4.8c6.1,0,10.7,4,10.7,12.9V245h-9.3
		v-16.6c0-3.9-1.4-6.5-4.7-6.5c-2.6,0-4.1,1.8-4.7,3.5c-0.2,0.6-0.4,1.5-0.4,2.3V245h-9.3V224.5z"/>
	<path class="st0" d="M367.1,201.4V236c0,3.4,0.1,6.9,0.2,9h-8.3l-0.4-4.4h-0.1c-1.9,3.4-5.5,5.1-9.4,5.1c-7.1,0-12.8-6.1-12.8-15.4
		c-0.1-10.1,6.3-16,13.4-16c3.7,0,6.6,1.3,7.9,3.4h0.1v-16.3H367.1z M357.8,227.6c0-0.5-0.1-1.2-0.1-1.7c-0.6-2.5-2.6-4.6-5.5-4.6
		c-4.2,0-6.4,3.8-6.4,8.5c0,5.1,2.5,8.3,6.4,8.3c2.7,0,4.8-1.8,5.4-4.5c0.2-0.7,0.2-1.3,0.2-2.1V227.6z"/>
	<path class="st0" d="M384.2,206.6c0,2.6-2,4.7-5,4.7c-2.9,0-4.9-2.1-4.8-4.7c-0.1-2.7,1.9-4.7,4.9-4.7
		C382.3,201.9,384.2,203.9,384.2,206.6z M374.6,245v-30h9.3v30H374.6z"/>
	<path class="st0" d="M391.4,224.5c0-3.7-0.1-6.9-0.2-9.6h8.1l0.4,4.1h0.2c1.2-1.9,4.3-4.8,9.3-4.8c6.1,0,10.7,4,10.7,12.9V245h-9.3
		v-16.6c0-3.9-1.4-6.5-4.7-6.5c-2.6,0-4.1,1.8-4.7,3.5c-0.2,0.6-0.4,1.5-0.4,2.3V245h-9.3V224.5z"/>
	<path class="st0" d="M456,214.9c-0.1,1.9-0.2,4.4-0.2,8.9v16.8c0,5.8-1.2,10.5-4.5,13.5c-3.3,2.8-7.8,3.7-12.2,3.7
		c-3.9,0-8.1-0.8-10.8-2.3l1.8-7.1c1.9,1.1,5.2,2.3,8.7,2.3c4.4,0,7.8-2.4,7.8-7.9v-2h-0.1c-1.8,2.5-4.7,3.9-8.1,3.9
		c-7.4,0-12.7-6-12.7-14.7c0-9.6,6.3-15.8,13.6-15.8c4.1,0,6.7,1.8,8.2,4.2h0.1l0.3-3.6H456z M446.4,227.2c0-0.6-0.1-1.2-0.2-1.7
		c-0.7-2.5-2.5-4.1-5-4.1c-3.4,0-6.1,3.1-6.1,8.5c0,4.5,2.2,8,6.1,8c2.4,0,4.3-1.6,4.9-3.8c0.2-0.7,0.3-1.7,0.3-2.5V227.2z"/>
	<path class="st0" d="M475.6,201.4h9.3V245h-9.3V201.4z"/>
	<path class="st0" d="M499.7,232.9c0.3,3.9,4.1,5.7,8.5,5.7c3.2,0,5.8-0.4,8.3-1.2l1.2,6.3c-3.1,1.2-6.8,1.8-10.9,1.8
		c-10.2,0-16-5.9-16-15.3c0-7.6,4.7-16,15.2-16c9.7,0,13.4,7.5,13.4,15c0,1.6-0.2,3-0.3,3.7H499.7z M510.7,226.5
		c0-2.3-1-6.1-5.3-6.1c-3.9,0-5.5,3.6-5.8,6.1H510.7z"/>
	<path class="st0" d="M541.9,245l-0.6-3h-0.2c-2,2.4-5,3.7-8.6,3.7c-6.1,0-9.7-4.4-9.7-9.2c0-7.8,7-11.5,17.6-11.5v-0.4
		c0-1.6-0.9-3.9-5.5-3.9c-3.1,0-6.3,1-8.3,2.3l-1.7-6c2.1-1.2,6.2-2.6,11.7-2.6c10,0,13.2,5.9,13.2,12.9v10.4c0,2.9,0.1,5.6,0.4,7.3
		H541.9z M540.8,230.8c-4.9-0.1-8.7,1.1-8.7,4.7c0,2.4,1.6,3.6,3.7,3.6c2.3,0,4.2-1.5,4.8-3.4c0.1-0.5,0.2-1,0.2-1.6V230.8z"/>
	<path class="st0" d="M586.4,201.4V236c0,3.4,0.1,6.9,0.2,9h-8.3l-0.4-4.4h-0.1c-1.9,3.4-5.5,5.1-9.4,5.1c-7.1,0-12.8-6.1-12.8-15.4
		c-0.1-10.1,6.3-16,13.4-16c3.7,0,6.6,1.3,7.9,3.4h0.1v-16.3H586.4z M577,227.6c0-0.5-0.1-1.2-0.1-1.7c-0.6-2.5-2.6-4.6-5.5-4.6
		c-4.2,0-6.4,3.8-6.4,8.5c0,5.1,2.5,8.3,6.4,8.3c2.7,0,4.8-1.8,5.4-4.5c0.2-0.7,0.2-1.3,0.2-2.1V227.6z"/>
	<path class="st0" d="M601,232.9c0.3,3.9,4.1,5.7,8.5,5.7c3.2,0,5.8-0.4,8.3-1.2l1.2,6.3c-3.1,1.2-6.8,1.8-10.9,1.8
		c-10.2,0-16-5.9-16-15.3c0-7.6,4.7-16,15.2-16c9.7,0,13.4,7.5,13.4,15c0,1.6-0.2,3-0.3,3.7H601z M612,226.5c0-2.3-1-6.1-5.3-6.1
		c-3.9,0-5.5,3.6-5.8,6.1H612z"/>
	<path class="st0" d="M626.2,224.8c0-4.4-0.1-7.3-0.2-9.9h8l0.3,5.5h0.2c1.5-4.4,5.2-6.2,8.1-6.2c0.9,0,1.3,0,2,0.1v8.8
		c-0.7-0.1-1.5-0.2-2.5-0.2c-3.4,0-5.8,1.8-6.4,4.7c-0.1,0.6-0.2,1.4-0.2,2.1V245h-9.3V224.8z"/>
	<path class="st0" d="M649.5,236.8c1.7,1,5.3,2.3,8,2.3c2.8,0,4-1,4-2.5c0-1.5-0.9-2.3-4.4-3.4c-6.2-2.1-8.6-5.5-8.5-9
		c0-5.6,4.8-9.8,12.2-9.8c3.5,0,6.6,0.8,8.5,1.7l-1.7,6.4c-1.3-0.7-3.9-1.7-6.5-1.7c-2.3,0-3.6,0.9-3.6,2.5c0,1.4,1.2,2.1,4.8,3.4
		c5.7,2,8.1,4.8,8.2,9.3c0,5.6-4.4,9.7-13,9.7c-3.9,0-7.4-0.9-9.7-2.1L649.5,236.8z"/>
</g>
<g class="st1">
	<path class="st0" d="M684,215.3v2.9h-3.4v9.1h-3.7v-9.1h-3.4v-2.9H684z M696.9,227.3l-0.2-5.3c0-1.3,0-2.8,0-4.7h-0.2
		c-0.4,1.6-0.7,3.3-1,4.7l-1.2,5.1h-3.5l-1.1-5.1c-0.2-1.1-0.5-3-0.7-4.6h-0.2c0,1.6,0,3.3-0.1,4.7l-0.3,5.3h-3.4l0.7-12h5.6
		l0.8,2.9c0.2,0.9,0.4,1.9,0.7,3.9h0c0.3-1.5,0.6-2.7,0.9-3.9l0.9-2.9h5.2l0.7,12H696.9z"/>
</g>
</svg>
