<svg xmlns="http://www.w3.org/2000/svg" viewBox="0 0 76.6 76.6"><defs><style>.cls-1{fill:none;stroke:#bb233b;stroke-miterlimit:10;}.cls-2{fill:#bb233b;}</style></defs><title>distrubtion</title><g id="Layer_2" data-name="Layer 2"><g id="Layer_1-2" data-name="Layer 1"><circle class="cls-1" cx="38.3" cy="38.3" r="37.8"/><path class="cls-2" d="M38.74,28.61v1h.06a8.47,8.47,0,0,1,6,14.44,8.48,8.48,0,1,1-6-14.44v-1m0,0a9.49,9.49,0,1,0,0,19h0a9.49,9.49,0,0,0,0-19Z"/><path class="cls-2" d="M38.71,10.8h.11a3.57,3.57,0,0,1,3.4,3.55,3.49,3.49,0,0,1-7,0,3.48,3.48,0,0,1,1-2.5,3.44,3.44,0,0,1,2.45-1m0-1a4.53,4.53,0,0,0-4.48,4.56,4.42,4.42,0,0,0,4.48,4.38h0a4.43,4.43,0,0,0,4.5-4.38A4.55,4.55,0,0,0,38.85,9.8Z"/><path class="cls-2" d="M18.13,46.55h.18a3.5,3.5,0,0,1,3.33,3.57,3.66,3.66,0,0,1-3.51,3.4H18A3.51,3.51,0,0,1,14.68,50a3.38,3.38,0,0,1,3.45-3.42m0-1A4.36,4.36,0,0,0,13.68,50,4.51,4.51,0,0,0,18,54.52h.1a4.67,4.67,0,0,0,4.51-4.36,4.51,4.51,0,0,0-4.29-4.61Z"/><path class="cls-2" d="M38.73,57.45v1h.07a3.43,3.43,0,0,1,3.42,3.46,3.52,3.52,0,0,1-3.5,3.47,3.47,3.47,0,1,1,0-6.93v-1m0,0a4.41,4.41,0,0,0-4.49,4.29,4.51,4.51,0,0,0,4.48,4.65h0a4.53,4.53,0,0,0,4.46-4.46,4.43,4.43,0,0,0-4.4-4.47Z"/><path class="cls-2" d="M18.12,21.68v1a3.53,3.53,0,0,1,2.51,1.13,3.46,3.46,0,0,1,1,2.51,3.5,3.5,0,0,1-3.53,3.33H18a3.38,3.38,0,0,1-3.36-3.49,3.49,3.49,0,0,1,3.43-3.48v-1m0,0h0a4.5,4.5,0,0,0-4.43,4.47A4.36,4.36,0,0,0,18,30.65h.1a4.52,4.52,0,0,0,4.53-4.29,4.64,4.64,0,0,0-4.52-4.68Z"/><path class="cls-2" d="M59.32,22.68h.11a3.41,3.41,0,0,1,2.42,1.13,3.58,3.58,0,0,1,.92,2.65,3.36,3.36,0,0,1-3.45,3.19H59.1a3.52,3.52,0,0,1-2.4-1.18A3.36,3.36,0,0,1,55.81,26a3.67,3.67,0,0,1,3.51-3.36m0-1A4.66,4.66,0,0,0,54.81,26a4.52,4.52,0,0,0,4.24,4.66h.26a4.38,4.38,0,0,0,4.45-4.12,4.52,4.52,0,0,0-4.29-4.85Z"/><path class="cls-2" d="M59.32,46.55h0A3.38,3.38,0,0,1,62.77,50a3.51,3.51,0,0,1-3.38,3.55h-.08a3.65,3.65,0,0,1-3.51-3.4,3.5,3.5,0,0,1,3.33-3.57h.17m0-1H59.1a4.51,4.51,0,0,0-4.29,4.61,4.67,4.67,0,0,0,4.51,4.36h.1A4.52,4.52,0,0,0,63.77,50a4.36,4.36,0,0,0-4.46-4.42Z"/><path class="cls-2" d="M28.27,28.61l-4.72.78,1.88,4.39.54-.23-.25-2.25,3.21,1.53.32-.6-2.87-2,2.08-1.06-.2-.55Z"/><path class="cls-2" d="M49.11,28.7l-.09.64,2.19.84-3.09,2.07.33.61,3.36-1.58-.37,2.34.62.19,1.82-4.49-4.77-.61Z"/><path class="cls-2" d="M52,42.4l-.62.26.47,2.27-3.4-1.6-.33.55,3,2.11L49,46.94l.13.59,4.79-.68L52,42.4Z"/><path class="cls-2" d="M25.34,42.38l-1.71,4.49,4.7.64.12-.58L26.32,46l3-2.1L29,43.35l-3.29,1.54.27-2.34-.61-.17Z"/><path class="cls-2" d="M38.68,20.7l-3,3.64.59.52L38,23.31l.46,3.77.6-.07.26-3.67,1.92,1.46.44-.46-3-3.65Z"/><path class="cls-2" d="M39.06,49.12l-.73.06-.17,3.77-1.91-1.55-.53.47,3.05,3.63,3-3.65-.49-.45-1.89,1.46-.29-3.74Z"/></g></g></svg>