<svg xmlns="http://www.w3.org/2000/svg" viewBox="0 0 76.6 76.6"><defs><style>.cls-1{fill:#bb233b;}.cls-2{fill:none;stroke:#bb233b;stroke-miterlimit:10;}</style></defs><title>production</title><g id="Layer_2" data-name="Layer 2"><g id="Layer_1-2" data-name="Layer 1"><path class="cls-1" d="M51,20.56v7.36h2.7A2.1,2.1,0,0,1,55.84,30c0,4.47,0,9,0,13.46a2.12,2.12,0,0,1-2.19,2.08H51V57.8H26V45.54H23.29a2.12,2.12,0,0,1-2.19-2.08c0-4.5,0-9,0-13.46a2.11,2.11,0,0,1,2.26-2.08H26V20.56H51m-24.49,7.3h24V21.05h-24v6.81M52,34.66h0a2.85,2.85,0,0,0,2.82-2.88A2.85,2.85,0,0,0,52,29h-.06a2.85,2.85,0,0,0-2.77,2.82A2.85,2.85,0,0,0,52,34.66M26.49,57.31h24V41.91h-24V57.31M52,19.56H25v7.36H23.35A3.11,3.11,0,0,0,20.1,30q-.07,6.74,0,13.48a3.11,3.11,0,0,0,3.18,3.07H25V58.8H52V46.54h1.71a3.11,3.11,0,0,0,3.18-3.07q.07-6.74,0-13.48a3.11,3.11,0,0,0-3.18-3.07H52V19.56Zm-24.49,7.3V22.05h22v4.81ZM52,33.66a1.84,1.84,0,0,1,0-3.67h0a1.84,1.84,0,0,1,0,3.67ZM27.49,56.31V42.91h22V56.31Z"/><path class="cls-1" d="M46,47v.36H30.95V47H46m1-1H29.95v2.36H47V46Z"/><path class="cls-1" d="M46,51.86v.36H30.94v-.36H46m1-1H29.94v2.36H47V50.86Z"/><circle class="cls-2" cx="38.3" cy="38.3" r="37.8"/></g></g></svg>