<svg xmlns="http://www.w3.org/2000/svg" viewBox="0 0 76.6 76.6"><defs><style>.cls-1{fill:none;stroke:#bb233b;stroke-miterlimit:10;}.cls-2{fill:#bb233b;}</style></defs><title>sales</title><g id="Layer_2" data-name="Layer 2"><g id="Layer_1-2" data-name="Layer 1"><circle class="cls-1" cx="38.3" cy="38.3" r="37.8"/><path class="cls-2" d="M27.85,28.14a4.38,4.38,0,0,1,.59,0,4.5,4.5,0,0,1,4,4c.14,1,.34,2,.54,3a3.33,3.33,0,0,0,2.3,2.53,26,26,0,0,1,3.15,1.39,4.39,4.39,0,0,1,1.19,1A1.16,1.16,0,0,1,40,41.36,1.1,1.1,0,0,1,39,42h-.16a42.73,42.73,0,0,1-4.69-.95,7.52,7.52,0,0,1-1.36-.56L32,40.14l-1.12-.49-.26,1.19-.13.6c-.1.46-.21.92-.3,1.39a3,3,0,0,1-1.29,2,2,2,0,0,0-.9,1.77c0,3.68,0,8.53,0,13.43a2.49,2.49,0,0,1-2.44,2.63,2.79,2.79,0,0,1-.71-.09A2.45,2.45,0,0,1,23,60.09V57.3q0-5.74,0-11.47a3,3,0,0,0-.68-2,3.11,3.11,0,0,1-.6-2.78q.54-2.5,1.06-5l1-4.79a4,4,0,0,1,4-3.11m0-1a5,5,0,0,0-5,3.9c-.7,3.26-1.39,6.53-2.08,9.79a4.11,4.11,0,0,0,.81,3.62,2,2,0,0,1,.46,1.38Q22,53,22,60.09a3.46,3.46,0,0,0,2.53,3.5,3.78,3.78,0,0,0,1,.13A3.48,3.48,0,0,0,29,60.08q0-6.72,0-13.44a1,1,0,0,1,.46-.94A4,4,0,0,0,31.16,43c.13-.65.28-1.3.43-2a15.58,15.58,0,0,0,2.28,1,44.32,44.32,0,0,0,4.8,1l.3,0a2.07,2.07,0,0,0,1.43-3.57,5.43,5.43,0,0,0-1.48-1.25,27.24,27.24,0,0,0-3.27-1.44A2.35,2.35,0,0,1,34,35c-.2-1-.39-1.93-.53-2.91a5.5,5.5,0,0,0-4.87-4.86,5.39,5.39,0,0,0-.73,0Z"/><path class="cls-2" d="M49.72,28.14A4,4,0,0,1,53,29.8a3.77,3.77,0,0,1,.62,1.48c.55,2.43,1.07,4.92,1.58,7.32l.52,2.46A3.43,3.43,0,0,1,55,44a2.91,2.91,0,0,0-.58,1.66c0,3.56,0,7.12,0,10.68v3.58a2.56,2.56,0,0,1-1.81,2.71,2.67,2.67,0,0,1-.69.09,2.47,2.47,0,0,1-2.45-2.59c0-3.93,0-8.19,0-13.43a2.07,2.07,0,0,0-1-1.86,3,3,0,0,1-1.24-2c-.12-.57-.25-1.14-.37-1.7l-.15-.7-.23-1.05-1,.3L44,40.17l-1,.3a5.55,5.55,0,0,0-1.88-3.39l1-.09a2.61,2.61,0,0,0,2.41-2.23c.09-.43.17-.86.25-1.28.12-.63.24-1.28.38-1.91a4.13,4.13,0,0,1,3.28-3.26,5.35,5.35,0,0,1,1.29-.17m0-1a6.33,6.33,0,0,0-1.54.2,5.12,5.12,0,0,0-4,4c-.24,1.06-.41,2.14-.63,3.21A1.62,1.62,0,0,1,42,36c-1,.1-2.09.17-3.14.25l-.77.06c2.2,1.16,4.13,2.45,3.95,5.48l3.75-1.11c.17.76.35,1.57.52,2.39A4,4,0,0,0,48,45.67a1.08,1.08,0,0,1,.51,1q0,6.72,0,13.44a3.48,3.48,0,0,0,3.45,3.58,3.67,3.67,0,0,0,.95-.13,3.5,3.5,0,0,0,2.55-3.68c0-4.75,0-9.51,0-14.26a1.93,1.93,0,0,1,.38-1.07,4.43,4.43,0,0,0,.87-3.74c-.69-3.26-1.37-6.53-2.1-9.79a4.77,4.77,0,0,0-.81-1.88,5,5,0,0,0-4.06-2Z"/><path class="cls-2" d="M46.51,16.8v1a4.13,4.13,0,1,1-4.1,4.1,4.07,4.07,0,0,1,4.1-4.1v-1m0,0h0a5.11,5.11,0,0,0,0,10.22h0a5.11,5.11,0,1,0,0-10.22Z"/><path class="cls-2" d="M30.14,16.8l0,1a4.11,4.11,0,1,1-3.08,7A4,4,0,0,1,26,21.89a4.09,4.09,0,0,1,4.18-4.09v-1m0,0A5.11,5.11,0,1,0,30,27h.06a5.11,5.11,0,0,0,.1-10.23Z"/></g></g></svg>