<svg xmlns="http://www.w3.org/2000/svg" viewBox="0 0 76.6 76.6"><defs><style>.cls-1{fill:#bb233b;}.cls-2{fill:none;stroke:#bb233b;stroke-miterlimit:10;}</style></defs><title>storage</title><g id="Layer_2" data-name="Layer 2"><g id="Layer_1-2" data-name="Layer 1"><path class="cls-1" d="M56.76,22.05v7.68H20V22.05H56.76m1-1H19v9.68H57.76V21.05Z"/><path class="cls-1" d="M53.13,31.73V52.11H23.07V31.73H53.13m1-1H22.07V53.11H54.13V30.73Z"/><path class="cls-1" d="M41.73,37.17a1.72,1.72,0,1,1,0,3.44H34.47a1.72,1.72,0,0,1,0-3.44h7.26m0-1H34.47a2.72,2.72,0,0,0,0,5.44h7.26a2.72,2.72,0,1,0,0-5.44Z"/><circle class="cls-2" cx="38.3" cy="38.3" r="37.8"/></g></g></svg>