<svg xmlns="http://www.w3.org/2000/svg" xmlns:xlink="http://www.w3.org/1999/xlink" viewBox="0 0 300 300"><defs><style>.cls-1{fill:none;}.cls-2{clip-path:url(#clip-path);}.cls-3{fill:#fff;}</style><clipPath id="clip-path"><rect class="cls-1" x="77.39" y="62.16" width="143.77" height="176.34"/></clipPath></defs><title>ww</title><g id="Layer_2" data-name="Layer 2"><g id="Layer_1-2" data-name="Layer 1"><rect class="cls-1" width="300" height="300"/><g class="cls-2"><path class="cls-3" d="M218.55,224.51a8.72,8.72,0,0,0-2.19-.3,5.13,5.13,0,0,0-2.41.56,4.1,4.1,0,0,0-1.66,1.59,4.65,4.65,0,0,0-.6,2.38,3.9,3.9,0,0,0,.43,2,2.92,2.92,0,0,0,1.2,1.11,11,11,0,0,0,2,.73,8.39,8.39,0,0,1,1.55.6,1,1,0,0,1,.58,1,1.16,1.16,0,0,1-.51,1,2.08,2.08,0,0,1-1.19.34,4.79,4.79,0,0,1-3.13-1.39l-1.51,2.83a8.19,8.19,0,0,0,4.76,1.53,5.76,5.76,0,0,0,3.85-1.27,4.5,4.5,0,0,0,1.39-3.63,3.17,3.17,0,0,0-.87-2.37,5.84,5.84,0,0,0-2.47-1.31l-.89-.27a5.72,5.72,0,0,1-1.14-.5.88.88,0,0,1-.42-.79.91.91,0,0,1,.47-.82,1.9,1.9,0,0,1,1-.3,3.57,3.57,0,0,1,2.34.89l1.4-2.72a8.43,8.43,0,0,0-2-.81m-17.68.06h-3.52v13.48h3.52v-5.52H206v5.52h3.52V224.57H206v5.2h-5.08Zm-4.8,3v-3h-9.33v3h2.91v10.51h3.52V227.54Zm-16.64-.29a5,5,0,0,1,1.22.13,1.66,1.66,0,0,1,.87.5,1.77,1.77,0,0,1,0,2.11,1.73,1.73,0,0,1-.87.5,5.54,5.54,0,0,1-1.22.12h-.34v-3.36Zm4.75,4.57a3.48,3.48,0,0,0,1-1.35,4.41,4.41,0,0,0,.35-1.75,4.19,4.19,0,0,0-.61-2.32,3.54,3.54,0,0,0-1.66-1.39,6.4,6.4,0,0,0-2.44-.44h-5.26v13.48h3.52v-5.18h0l3.32,5.18h4.38l-4.26-5.52a3.54,3.54,0,0,0,1.61-.71M168.36,228a3.78,3.78,0,0,1,1.4,1.32,3.24,3.24,0,0,1,.52,1.74,4.07,4.07,0,0,1-.52,2.06,3.77,3.77,0,0,1-1.39,1.44,3.79,3.79,0,0,1-3.83,0,3.73,3.73,0,0,1-1.4-1.44,4.17,4.17,0,0,1-.51-2.06,3.16,3.16,0,0,1,.52-1.74,3.78,3.78,0,0,1,1.4-1.32,3.88,3.88,0,0,1,3.81,0m-4.71-3.39a7.66,7.66,0,0,0-2.42,1.44,7.1,7.1,0,0,0-1.66,2.22,6.42,6.42,0,0,0-.61,2.77,8,8,0,0,0,.55,3,6.91,6.91,0,0,0,1.57,2.38,7,7,0,0,0,2.39,1.55,8.52,8.52,0,0,0,6,0,6.85,6.85,0,0,0,3.95-3.92,7.9,7.9,0,0,0,.55-3,6.28,6.28,0,0,0-.61-2.77,6.81,6.81,0,0,0-1.66-2.22,7.61,7.61,0,0,0-2.41-1.44,8,8,0,0,0-5.61,0m-25.47-.06,4,13.48h3.58l2.65-7.81h0l2.37,7.81h3.59l4.33-13.48h-3.66l-2.55,8.71h0l-2.66-8.71h-2.8l-2.83,8.71h0l-2.35-8.71Zm-7.48,0v13.48h7.75v-3h-4.23V224.57ZM123.49,228a3.78,3.78,0,0,1,1.4,1.32,3.16,3.16,0,0,1,.52,1.74,4.17,4.17,0,0,1-.51,2.06,3.92,3.92,0,0,1-1.39,1.44,3.8,3.8,0,0,1-3.84,0,3.64,3.64,0,0,1-1.39-1.44,4.07,4.07,0,0,1-.52-2.06,3.16,3.16,0,0,1,.52-1.74,3.86,3.86,0,0,1,1.4-1.32,3.76,3.76,0,0,1,1.91-.5,3.7,3.7,0,0,1,1.9.5m-4.71-3.39a7.77,7.77,0,0,0-2.42,1.44,7.1,7.1,0,0,0-1.66,2.22,6.41,6.41,0,0,0-.6,2.77,8,8,0,0,0,.54,3,6.91,6.91,0,0,0,1.57,2.38A7.09,7.09,0,0,0,118.6,238a8.52,8.52,0,0,0,6,0,6.88,6.88,0,0,0,2.39-1.54,6.75,6.75,0,0,0,1.56-2.38,7.9,7.9,0,0,0,.55-3,6.41,6.41,0,0,0-.6-2.77,7.1,7.1,0,0,0-1.66-2.22,7.84,7.84,0,0,0-2.41-1.44,8,8,0,0,0-5.62,0M107.57,228a3.86,3.86,0,0,1,1.4,1.32,3.23,3.23,0,0,1,.51,1.74,4.17,4.17,0,0,1-.51,2.06,3.77,3.77,0,0,1-1.39,1.44,3.64,3.64,0,0,1-1.92.52,3.75,3.75,0,0,1-3.31-2,4.17,4.17,0,0,1-.51-2.06,3.23,3.23,0,0,1,.51-1.74,3.89,3.89,0,0,1,1.41-1.32,3.88,3.88,0,0,1,3.81,0m-4.72-3.39a7.72,7.72,0,0,0-2.41,1.44,7,7,0,0,0-1.66,2.22,6.28,6.28,0,0,0-.61,2.77,7.81,7.81,0,0,0,.55,3,6.77,6.77,0,0,0,1.57,2.38,7,7,0,0,0,2.39,1.55,8.52,8.52,0,0,0,6,0A6.85,6.85,0,0,0,112.6,234a7.9,7.9,0,0,0,.55-3,6.28,6.28,0,0,0-.61-2.77,7,7,0,0,0-1.66-2.22,7.61,7.61,0,0,0-2.41-1.44,8,8,0,0,0-5.62,0m-25.46-.06,4,13.48H85l2.66-7.81h0l2.37,7.81h3.59L98,224.57H94.31l-2.55,8.71h0l-2.66-8.71h-2.8l-2.84,8.71h0l-2.35-8.71Z"/></g><path class="cls-3" d="M78.18,62.16v141H220.36v-141ZM175,161.73H159.57l-10.14-33.64h-.17l-11.39,33.64H122.56l-17.31-58h15.69L131,141.17h.15l12.16-37.47h12l11.39,37.47h.15l10.94-37.47h15.71Z"/></g></g></svg>